<svg width="476" height="22" viewBox="0 0 476 22" fill="none" xmlns="http://www.w3.org/2000/svg">
<path fill-rule="evenodd" clip-rule="evenodd" d="M472.828 3.0386C472.828 3.03869 472.825 3.03795 472.819 3.03616C472.825 3.03762 472.828 3.03852 472.828 3.0386ZM315.063 8.4503C318.913 8.25495 322.762 8.06192 326.611 7.87179C326.675 7.86863 327.394 7.8322 328.676 7.76724C344.312 6.97518 443.688 1.94089 460.485 1.23669C461.439 1.1967 462.873 1.02471 464.507 0.811385C464.863 0.764828 465.228 0.716477 465.596 0.667629C466.882 0.49719 468.214 0.320693 469.399 0.193186C470.854 0.0367518 472.329 -0.0775779 473.242 0.064973C473.477 0.10162 473.821 0.174627 474.146 0.359453C474.5 0.560505 475.033 1.03073 475.047 1.83636C475.058 2.48947 474.701 2.94653 474.526 3.14397C474.315 3.38281 474.054 3.59022 473.799 3.76909C471.438 5.42135 468.661 5.71626 466.087 5.71518C465.1 5.71477 464.087 5.66891 463.116 5.62494C462.821 5.61158 462.53 5.5984 462.245 5.58672C460.992 5.53545 459.817 5.51094 458.712 5.59681C445.088 6.65598 431.448 7.59529 417.796 8.33104C401.054 9.2333 379.992 9.97761 356.279 10.5897C356.273 10.6403 356.265 10.6896 356.255 10.7374C356.1 11.5154 355.764 12.1985 355.234 12.7421C354.711 13.2783 354.073 13.6015 353.428 13.7899C352.192 14.1509 350.737 14.0692 349.406 13.8933C348.376 13.7573 347.269 13.5404 346.226 13.336C345.898 13.2718 345.576 13.2087 345.265 13.1499C343.905 12.8924 342.742 12.712 341.827 12.7236C331.803 12.8513 306.217 12.8332 293.65 12.8243C291.624 12.8229 289.936 12.8217 288.707 12.8214C282.095 13.1699 275.483 13.5215 268.869 13.8731C196.247 17.7339 123.481 21.6024 50.764 21.6024C49.9355 21.6024 49.264 20.9308 49.264 20.1024C49.264 19.274 49.9355 18.6024 50.764 18.6024C109.742 18.6024 168.742 16.0552 227.719 13.0307C189.233 13.2967 150.761 13.8149 112.261 14.5772C111.476 14.5928 110.819 14.0015 110.74 13.2338C68.3284 13.3074 33.4939 13.2186 15.1611 13.1048C10.0741 13.0732 6.25398 13.0397 3.89432 13.0071C2.71945 12.9909 1.89164 12.9747 1.45001 12.9586C1.33998 12.9546 1.24097 12.9502 1.16174 12.9449C1.12446 12.9424 1.07341 12.9386 1.02063 12.9324C0.992114 12.9289 0.931688 12.9199 0.893497 12.913C0.825405 12.8985 0.601482 12.8269 0.448798 12.7543C-0.0741972 12.2819 -0.190557 10.792 0.371265 10.1621C0.549477 10.0666 0.810639 9.97629 0.886437 9.95962C0.983557 9.94057 1.07119 9.93348 1.09807 9.93131L1.10015 9.93114C1.17968 9.92467 1.27733 9.92023 1.37551 9.91668C2.93173 9.86031 11.1027 9.82132 27.3477 9.82132C36.2408 9.82132 45.1336 9.82297 54.0263 9.82462C110.57 9.83514 167.107 9.84565 223.643 9.43109C255.283 9.19907 264.221 9.07747 276.503 8.91038C284.88 8.7964 294.814 8.66126 314.571 8.45545C314.735 8.45374 314.899 8.45203 315.063 8.4503Z" fill="#1DBF73"/>
</svg>
